# xmcd
#
# Track frame offsets:
#	183
#	14915
#	34248
#	47325
#	63645
#	72323
#	86340
#	96900
#	117275
#	130263
#	140983
#	157998
#	168930
#	181433
#
# Disc length: 2762 seconds
#
# Revision: 0
# Processed by: cddbd v1.5.2PL0 Copyright (c) Steve Scherf et al.
# Submitted via: EasyCDDAExtractor 5.0.4.1
#
DISCID=c70ac80e
DTITLE=The Animals - Night Riding
DYEAR=1990
DGENRE=Cult
TTITLE0=We gotta get out of this place
TTITLE1=I`m mad again
TTITLE2=Take it easy baby
TTITLE3=I`m going to change the world
TTITLE4=Talkin `bout you
TTITLE5=Memphis Tennessee
TTITLE6=Don`t let me be misunderstood
TTITLE7=House of the rising sun
TTITLE8=Bury my baby
TTITLE9=club a go-go
TTITLE10=The right time
TTITLE11=Gonna send you back to walker
TTITLE12=Around and around
TTITLE13=The story of Bo Diddley
EXTD=
EXTT0=
EXTT1=
EXTT2=
EXTT3=
EXTT4=
EXTT5=
EXTT6=
EXTT7=
EXTT8=
EXTT9=
EXTT10=
EXTT11=
EXTT12=
EXTT13=
PLAYORDER=
